<svg xmlns="http://www.w3.org/2000/svg" xmlns:xlink="http://www.w3.org/1999/xlink" width="177.05" height="277.08" viewBox="0 0 46.844 73.311">
  <defs>
    <pattern id="a" patternTransform="matrix(.26458 0 0 .26458 195.877 61.993)" height="80.714" width="10.068" patternUnits="userSpaceOnUse">
      <path fill="none" d="M195.688 61.899h2.664v21.356h-2.664z" transform="matrix(3.77953 0 0 3.77953 -739.609 -233.948)"/>
      <path fill="#fff" stroke-width="1.022" d="M196.722 61.899h1.63v21.356h-1.63z" transform="matrix(3.77953 0 0 3.77953 -739.609 -233.948)"/>
      <path d="M196.188 83.254V61.9" fill="none" stroke="#ff2a2a" transform="matrix(3.77953 0 0 3.77953 -739.609 -233.948)"/>
    </pattern>
    <pattern xlink:href="#a" id="n" patternTransform="matrix(.26458 0 0 .26458 -81.403 -22.405)"/>
  </defs>
  <path d="M44.344 9.927c0-5.914-1.224-7.427-6.937-7.427H9.437C3.724 2.5 2.5 4.013 2.5 9.927v53.457c0 5.914 1.224 7.427 6.937 7.427h27.97c5.713 0 6.937-1.513 6.937-7.427z" fill="#fff" stroke="#000" stroke-linejoin="round"/>
  <path d="M25.639 41.88c-2.106-.16-3.941-1.47-6.069-1.48-2.1-.08-4.008.983-5.68 2.141-.93.562-2.334 1.063-3.204.144-1.093-1.44-1.18-3.367-1.142-5.108.072-1.913.643-3.891 2.097-5.22.865-.982 2.014-1.758 3.35-1.856 2.413-.34 4.86.157 7.114 1.014 1.278.31 2.53.754 3.824.978 1.314-.018 2.58-.49 3.83-.85 1.238-.374 2.295-1.127 3.361-1.826.917-.68 2.123-.07 2.602.834 1.344 2.326.693 5.301-.692 7.456-1.597 2.504-4.575 3.963-7.527 3.816-.622.01-1.245.014-1.864-.043z" fill="url(#n)" stroke="#ff2a2a"/>
  <path d="M25.639 41.88c-2.106-.16-3.941-1.47-6.068-1.48-2.101-.08-4.008.983-5.68 2.141-.93.562-2.335 1.063-3.204.144-1.094-1.44-1.18-3.367-1.142-5.108.071-1.913.642-3.891 2.096-5.22.865-.982 2.014-1.758 3.35-1.856 2.413-.34 4.86.157 7.114 1.014 1.278.31 2.53.754 3.824.978 1.314-.018 2.58-.49 3.83-.85 1.238-.374 2.296-1.127 3.361-1.826.917-.68 2.123-.07 2.602.834 1.344 2.326.693 5.301-.692 7.456-1.597 2.504-4.575 3.963-7.527 3.816-.621.01-1.245.014-1.864-.043z" fill="#ff2a2a" stroke="#ff2a2a"/>
  <path d="M16.049 30.077h14.922c3.499.055 5.958 3.43 6.02 6.346.062 2.984-2.342 6.75-5.886 6.75H16.249c-4.057-.042-6.412-3.417-6.456-6.462-.044-3.04 2.747-6.634 6.256-6.634z" fill="none" stroke="#ff2a2a"/>
  <path d="M8.864 36.632l14.305-7.255 14.566 7.383L23.15 44.16z" fill="none" stroke="#ff2a2a"/>
  <path d="M25.639 41.88c-2.106-.16-3.941-1.47-6.069-1.48-2.1-.08-4.008.983-5.68 2.141-.93.562-2.334 1.063-3.204.144-1.093-1.44-1.18-3.367-1.142-5.108.072-1.913.643-3.891 2.097-5.22.865-.982 2.014-1.758 3.35-1.856 2.413-.34 4.86.157 7.114 1.014 1.278.31 2.53.754 3.824.978 1.314-.019 2.58-.49 3.83-.85 1.238-.374 2.295-1.127 3.361-1.826.917-.68 2.123-.07 2.602.834 1.344 2.326.693 5.301-.692 7.456-1.597 2.504-4.575 3.963-7.527 3.816-.622.01-1.245.014-1.864-.043z" fill="none" stroke="#ff2a2a"/>
</svg>
