<svg xmlns="http://www.w3.org/2000/svg" width="400" height="250" viewBox="0 0 105.832 66.146"><defs><pattern id="a" patternTransform="translate(195.877 61.993) scale(.26458)" height="80.714" width="10.068" patternUnits="userSpaceOnUse"><path fill="none" d="M195.688 61.899h2.664v21.356h-2.664z" transform="translate(-739.609 -233.948) scale(3.77953)"/><path fill="#fff" stroke-width="1.022" d="M196.722 61.899h1.63v21.356h-1.63z" transform="translate(-739.609 -233.948) scale(3.77953)"/><path d="M196.188 83.254V61.9" fill="none" stroke="#ff2a2a" transform="translate(-739.609 -233.948) scale(3.77953)"/></pattern></defs><path d="M7.96 34.538L52.43 9.377l45.1 26.093-44.963 22.677z" fill="none" stroke="green" stroke-width="4.233"/><path d="M28.5 11.175h50.435c11.826.186 20.137 11.593 20.347 21.449.21 10.085-7.916 22.814-19.894 22.814H29.176c-13.713-.142-21.672-11.55-21.821-21.84C7.206 23.321 16.64 11.174 28.5 11.174z" fill="none" stroke="#ff2a2a" stroke-width="3.38"/><path d="M32.937 15.856c16.67-.291 21.601 5.696 35.33 6.36 13.728.664 22.41-11.716 27.395-3.952 7.569 11.786-6.7 34.813-22.763 35.323-14.55.243-21.142-5.309-34.8-5.832-13.66-.522-23.69 10.047-28.362 1.806-6.727-11.865 7.68-33.355 23.2-33.705z" fill="none" stroke="navy" stroke-width="4.233"/></svg>