<svg xmlns="http://www.w3.org/2000/svg" xmlns:xlink="http://www.w3.org/1999/xlink" width="161.931" height="262.78" viewBox="0 0 42.844 69.527"><defs><pattern patternTransform="matrix(.26458 0 0 .26458 -3.94 102.153)" id="b" xlink:href="#a"/><pattern patternUnits="userSpaceOnUse" width="10.068" height="80.714" patternTransform="matrix(.26458 0 0 .26458 214.909 60.198)" id="a"><path fill="#fff" stroke-width="1.022" d="M215.943 60.198h1.63v21.356h-1.63z" transform="matrix(3.77953 0 0 3.77953 -812.254 -227.52)"/><path d="M215.409 81.554V60.198" fill="none" stroke="#000" transform="matrix(3.77953 0 0 3.77953 -812.254 -227.52)"/></pattern></defs><g stroke="#000"><path fill="#fff" d="M.5.5h41.844v68.527H.5z"/><path d="M47.574 116.152c-2.106-.16-3.941-1.47-6.068-1.48-2.1-.08-4.008.983-5.68 2.141-.93.562-2.334 1.063-3.204.143-1.094-1.439-1.18-3.366-1.142-5.107.071-1.913.643-3.891 2.097-5.22.864-.982 2.013-1.758 3.35-1.856 2.412-.34 4.86.157 7.113 1.014 1.278.31 2.53.753 3.825.978 1.313-.019 2.578-.49 3.83-.85 1.237-.374 2.295-1.127 3.36-1.826.917-.68 2.124-.07 2.602.834 1.344 2.326.693 5.301-.692 7.456-1.597 2.504-4.575 3.963-7.527 3.816-.621.01-1.245.014-1.864-.043z" fill="url(#b)" transform="translate(-23.935 -76.272)"/></g></svg>