<svg xmlns="http://www.w3.org/2000/svg" width="177.05" height="277.08" viewBox="0 0 46.844 73.311"><defs><pattern patternUnits="userSpaceOnUse" width="10.068" height="80.714" patternTransform="translate(195.877 61.993) scale(.26458)" id="b"><path fill="none" d="M195.688 61.899h2.664v21.356h-2.664z" transform="translate(-739.609 -233.948) scale(3.77953)"/><path fill="#fff" stroke-width="1.022" d="M196.722 61.899h1.63v21.356h-1.63z" transform="translate(-739.609 -233.948) scale(3.77953)"/><path d="M196.188 83.254V61.9" fill="none" stroke="#ff2a2a" transform="translate(-739.609 -233.948) scale(3.77953)"/></pattern><pattern patternUnits="userSpaceOnUse" width="10.068" height="80.714" patternTransform="translate(195.877 61.993) scale(.26458)" id="a"><path fill="none" d="M195.688 61.899h2.664v21.356h-2.664z" transform="translate(-739.609 -233.948) scale(3.77953)"/><path fill="#fff" stroke-width="1.022" d="M196.722 61.899h1.63v21.356h-1.63z" transform="translate(-739.609 -233.948) scale(3.77953)"/><path d="M196.188 83.254V61.9" fill="none" stroke="#ff2a2a" transform="translate(-739.609 -233.948) scale(3.77953)"/></pattern></defs><path d="M44.344 9.927c0-5.914-1.224-7.427-6.937-7.427H9.437C3.724 2.5 2.5 4.013 2.5 9.927v53.456c0 5.915 1.224 7.428 6.937 7.428h27.97c5.713 0 6.937-1.513 6.937-7.428z" fill="#fff" stroke="#000" stroke-linejoin="round"/><path d="M302.918 126.278c-2.105-.16-3.94-1.47-6.068-1.48-2.1-.08-4.008.983-5.68 2.141-.93.561-2.334 1.063-3.204.143-1.093-1.439-1.18-3.366-1.141-5.107.071-1.913.642-3.892 2.096-5.22.865-.983 2.014-1.758 3.35-1.856 2.413-.34 4.86.156 7.114 1.014 1.278.31 2.53.753 3.824.978 1.314-.019 2.58-.49 3.83-.85 1.238-.375 2.295-1.127 3.361-1.826.917-.68 2.123-.07 2.602.833 1.344 2.326.693 5.302-.692 7.457-1.597 2.504-4.575 3.963-7.527 3.816a17.58 17.58 0 0 1-1.865-.043z" fill="url(#b)" stroke="#ff2a2a" transform="translate(-277.28 -84.398)"/></svg>