<svg xmlns="http://www.w3.org/2000/svg" width="177.05" height="277.08" viewBox="0 0 46.844 73.311"><defs><pattern patternUnits="userSpaceOnUse" width="10.068" height="80.714" patternTransform="translate(195.877 61.993) scale(.26458)" id="a"><path fill="none" d="M195.688 61.899h2.664v21.356h-2.664z" transform="translate(-739.609 -233.948) scale(3.77953)"/><path fill="#fff" stroke-width="1.022" d="M196.722 61.899h1.63v21.356h-1.63z" transform="translate(-739.609 -233.948) scale(3.77953)"/><path d="M196.188 83.254V61.9" fill="none" stroke="#ff2a2a" transform="translate(-739.609 -233.948) scale(3.77953)"/></pattern><pattern id="b" patternTransform="translate(195.877 61.993) scale(.26458)" height="80.714" width="10.068" patternUnits="userSpaceOnUse"><path fill="none" d="M195.688 61.899h2.664v21.356h-2.664z" transform="translate(-739.609 -233.948) scale(3.77953)"/><path fill="#fff" stroke-width="1.022" d="M196.722 61.899h1.63v21.356h-1.63z" transform="translate(-739.609 -233.948) scale(3.77953)"/><path d="M196.188 83.254V61.9" fill="none" stroke="#ff2a2a" transform="translate(-739.609 -233.948) scale(3.77953)"/></pattern><pattern id="c" patternTransform="translate(195.877 61.993) scale(.26458)" height="80.714" width="10.068" patternUnits="userSpaceOnUse"><path fill="none" d="M195.688 61.899h2.664v21.356h-2.664z" transform="translate(-739.609 -233.948) scale(3.77953)"/><path fill="#fff" stroke-width="1.022" d="M196.722 61.899h1.63v21.356h-1.63z" transform="translate(-739.609 -233.948) scale(3.77953)"/><path d="M196.188 83.254V61.9" fill="none" stroke="#ff2a2a" transform="translate(-739.609 -233.948) scale(3.77953)"/></pattern><pattern patternUnits="userSpaceOnUse" width="10.068" height="80.714" patternTransform="translate(195.877 61.993) scale(.26458)" id="d"><path fill="none" d="M195.688 61.899h2.664v21.356h-2.664z" transform="translate(-739.609 -233.948) scale(3.77953)"/><path fill="#fff" stroke-width="1.022" d="M196.722 61.899h1.63v21.356h-1.63z" transform="translate(-739.609 -233.948) scale(3.77953)"/><path d="M196.188 83.254V61.9" fill="none" stroke="#ff2a2a" transform="translate(-739.609 -233.948) scale(3.77953)"/></pattern></defs><path d="M44.344 9.927c0-5.914-1.224-7.427-6.937-7.427H9.437C3.724 2.5 2.5 4.013 2.5 9.927v53.456c0 5.915 1.224 7.428 6.937 7.428h27.97c5.713 0 6.937-1.513 6.937-7.428z" fill="#fff" stroke="#000" stroke-linejoin="round"/><path d="M25.639 41.88c-2.106-.16-3.94-1.47-6.068-1.48-2.1-.08-4.008.983-5.68 2.141-.93.562-2.334 1.063-3.204.143-1.094-1.439-1.18-3.366-1.142-5.107.072-1.913.643-3.891 2.097-5.22.865-.982 2.014-1.758 3.35-1.856 2.413-.34 4.86.157 7.113 1.014 1.278.31 2.53.753 3.825.978 1.313-.019 2.579-.49 3.83-.85 1.237-.375 2.295-1.127 3.36-1.826.917-.68 2.124-.07 2.603.834 1.343 2.326.693 5.301-.693 7.456-1.596 2.504-4.575 3.963-7.527 3.816-.621.01-1.244.014-1.864-.043z" fill="none" stroke="green"/></svg>