<svg xmlns="http://www.w3.org/2000/svg" xmlns:xlink="http://www.w3.org/1999/xlink" width="177.05" height="277.08" viewBox="0 0 46.844 73.311"><defs><pattern xlink:href="#a" id="t" patternTransform="matrix(.26458 0 0 .26458 4.504 -81.62)"/><pattern xlink:href="#b" id="u" patternTransform="matrix(.26458 0 0 .26458 4.504 -98.554)"/><pattern xlink:href="#c" id="a" patternTransform="matrix(.26458 0 0 .26458 203.895 117.228)"/><pattern xlink:href="#d" id="b" patternTransform="matrix(.26458 0 0 .26458 203.895 100.295)"/><pattern xlink:href="#e" id="c" patternTransform="matrix(.26458 0 0 .26458 257.35 146.093)"/><pattern xlink:href="#e" id="d" patternTransform="matrix(.26458 0 0 .26458 257.35 129.16)"/><pattern id="f" patternTransform="translate(214.909 60.198) scale(.26458)" height="80.714" width="10.068" patternUnits="userSpaceOnUse"><path transform="translate(-812.254 -227.52) scale(3.77953)" d="M215.943 60.198h1.63v21.356h-1.63z" stroke-width="1.022" fill="#fff"/><path transform="translate(-812.254 -227.52) scale(3.77953)" stroke="#000" fill="none" d="M215.409 81.554V60.198"/></pattern><pattern xlink:href="#g" id="e" patternTransform="matrix(.26458 0 0 .26458 83.618 147.902)"/><pattern xlink:href="#h" id="g" patternTransform="matrix(.26458 0 0 .26458 257.35 58.252)"/><pattern patternUnits="userSpaceOnUse" width="10.068" height="80.714" patternTransform="matrix(.26458 0 0 .26458 195.877 61.993)" id="h"><path fill="none" d="M195.688 61.899h2.664v21.356h-2.664z" transform="matrix(3.77953 0 0 3.77953 -739.609 -233.948)"/><path fill="#fff" stroke-width="1.022" d="M196.722 61.899h1.63v21.356h-1.63z" transform="matrix(3.77953 0 0 3.77953 -739.609 -233.948)"/><path d="M196.188 83.254V61.9" fill="none" stroke="#ff2a2a" transform="matrix(3.77953 0 0 3.77953 -739.609 -233.948)"/></pattern><pattern xlink:href="#i" id="j" patternTransform="matrix(.26458 0 0 .26458 257.35 58.252)"/><pattern patternUnits="userSpaceOnUse" width="10.068" height="80.714" patternTransform="matrix(.26458 0 0 .26458 195.877 61.993)" id="i"><path fill="none" d="M195.688 61.899h2.664v21.356h-2.664z" transform="matrix(3.77953 0 0 3.77953 -739.609 -233.948)"/><path fill="#fff" stroke-width="1.022" d="M196.722 61.899h1.63v21.356h-1.63z" transform="matrix(3.77953 0 0 3.77953 -739.609 -233.948)"/><path d="M196.188 83.254V61.9" fill="none" stroke="#ff2a2a" transform="matrix(3.77953 0 0 3.77953 -739.609 -233.948)"/></pattern><pattern patternUnits="userSpaceOnUse" width="10.068" height="80.714" patternTransform="translate(214.909 60.198) scale(.26458)" id="k"><path fill="#fff" stroke-width="1.022" d="M215.943 60.198h1.63v21.356h-1.63z" transform="translate(-812.254 -227.52) scale(3.77953)"/><path d="M215.409 81.554V60.198" fill="none" stroke="#000" transform="translate(-812.254 -227.52) scale(3.77953)"/></pattern><pattern patternTransform="matrix(.26458 0 0 .26458 257.35 58.252)" id="m" xlink:href="#l"/><pattern id="l" patternTransform="matrix(.26458 0 0 .26458 195.877 61.993)" height="80.714" width="10.068" patternUnits="userSpaceOnUse"><path fill="none" d="M195.688 61.899h2.664v21.356h-2.664z" transform="matrix(3.77953 0 0 3.77953 -739.609 -233.948)"/><path fill="#fff" stroke-width="1.022" d="M196.722 61.899h1.63v21.356h-1.63z" transform="matrix(3.77953 0 0 3.77953 -739.609 -233.948)"/><path d="M196.188 83.254V61.9" fill="none" stroke="#ff2a2a" transform="matrix(3.77953 0 0 3.77953 -739.609 -233.948)"/></pattern><pattern patternUnits="userSpaceOnUse" width="10.068" height="80.714" patternTransform="translate(214.909 60.198) scale(.26458)" id="n"><path fill="#fff" stroke-width="1.022" d="M215.943 60.198h1.63v21.356h-1.63z" transform="translate(-812.254 -227.52) scale(3.77953)"/><path d="M215.409 81.554V60.198" fill="none" stroke="#000" transform="translate(-812.254 -227.52) scale(3.77953)"/></pattern><pattern patternTransform="matrix(.26458 0 0 .26458 257.35 58.252)" id="p" xlink:href="#o"/><pattern id="o" patternTransform="matrix(.26458 0 0 .26458 195.877 61.993)" height="80.714" width="10.068" patternUnits="userSpaceOnUse"><path fill="none" d="M195.688 61.899h2.664v21.356h-2.664z" transform="matrix(3.77953 0 0 3.77953 -739.609 -233.948)"/><path fill="#fff" stroke-width="1.022" d="M196.722 61.899h1.63v21.356h-1.63z" transform="matrix(3.77953 0 0 3.77953 -739.609 -233.948)"/><path d="M196.188 83.254V61.9" fill="none" stroke="#ff2a2a" transform="matrix(3.77953 0 0 3.77953 -739.609 -233.948)"/></pattern><pattern id="q" patternTransform="translate(214.909 60.198) scale(.26458)" height="80.714" width="10.068" patternUnits="userSpaceOnUse"><path transform="translate(-812.254 -227.52) scale(3.77953)" d="M215.943 60.198h1.63v21.356h-1.63z" stroke-width="1.022" fill="#fff"/><path transform="translate(-812.254 -227.52) scale(3.77953)" stroke="#000" fill="none" d="M215.409 81.554V60.198"/></pattern><pattern xlink:href="#r" id="s" patternTransform="matrix(.26458 0 0 .26458 257.35 58.252)"/><pattern patternUnits="userSpaceOnUse" width="10.068" height="80.714" patternTransform="matrix(.26458 0 0 .26458 195.877 61.993)" id="r"><path fill="none" d="M195.688 61.899h2.664v21.356h-2.664z" transform="matrix(3.77953 0 0 3.77953 -739.609 -233.948)"/><path fill="#fff" stroke-width="1.022" d="M196.722 61.899h1.63v21.356h-1.63z" transform="matrix(3.77953 0 0 3.77953 -739.609 -233.948)"/><path d="M196.188 83.254V61.9" fill="none" stroke="#ff2a2a" transform="matrix(3.77953 0 0 3.77953 -739.609 -233.948)"/></pattern></defs><path d="M44.344 9.927c0-5.914-1.224-7.427-6.937-7.427H9.437C3.724 2.5 2.5 4.013 2.5 9.927v53.456c0 5.914 1.224 7.428 6.937 7.428h27.97c5.713 0 6.937-1.514 6.937-7.428z" fill="#fff" stroke="#000" stroke-linejoin="round"/><path d="M75.049-69.417c-2.106-.16-3.941-1.47-6.068-1.48-2.1-.08-4.008.983-5.68 2.141-.93.562-2.334 1.063-3.204.143-1.094-1.439-1.18-3.366-1.142-5.107.072-1.913.643-3.891 2.097-5.22.864-.982 2.013-1.758 3.35-1.856 2.412-.34 4.86.157 7.113 1.014 1.278.31 2.53.753 3.825.978 1.313-.019 2.578-.49 3.83-.85 1.237-.375 2.295-1.127 3.36-1.826.917-.68 2.124-.07 2.603.834 1.343 2.326.692 5.301-.693 7.456-1.596 2.504-4.575 3.963-7.527 3.816-.621.01-1.245.014-1.864-.043z" fill="url(#t)" stroke="#ff2a2a" transform="translate(-49.41 119.764)"/><path d="M75.049-86.35c-2.106-.16-3.941-1.47-6.068-1.48-2.1-.08-4.008.983-5.68 2.14-.93.562-2.334 1.063-3.204.144-1.094-1.44-1.18-3.366-1.142-5.108.072-1.912.643-3.89 2.097-5.22.864-.982 2.013-1.757 3.35-1.856 2.412-.34 4.86.157 7.113 1.015 1.278.31 2.53.753 3.825.978 1.313-.019 2.578-.49 3.83-.851 1.237-.374 2.295-1.126 3.36-1.825.917-.68 2.124-.07 2.603.833 1.343 2.326.692 5.302-.693 7.457-1.596 2.503-4.575 3.963-7.527 3.816-.621.01-1.245.013-1.864-.043z" fill="url(#u)" stroke="#ff2a2a" transform="translate(-49.41 119.764)"/></svg>