<svg xmlns="http://www.w3.org/2000/svg" xmlns:xlink="http://www.w3.org/1999/xlink" width="177.05" height="277.08" viewBox="0 0 46.844 73.311"><defs><pattern xlink:href="#a" id="G" patternTransform="matrix(.26458 0 0 .26458 4.504 -10.712)"/><pattern xlink:href="#b" id="H" patternTransform="matrix(.26458 0 0 .26458 4.504 -28.175)"/><pattern xlink:href="#c" id="I" patternTransform="matrix(.26458 0 0 .26458 4.504 6.75)"/><pattern xlink:href="#d" id="a" patternTransform="matrix(.26458 0 0 .26458 203.895 188.136)"/><pattern xlink:href="#e" id="b" patternTransform="matrix(.26458 0 0 .26458 203.895 170.674)"/><pattern xlink:href="#f" id="c" patternTransform="matrix(.26458 0 0 .26458 203.895 205.599)"/><pattern xlink:href="#g" id="d" patternTransform="matrix(.26458 0 0 .26458 257.35 217.002)"/><pattern xlink:href="#g" id="f" patternTransform="matrix(.26458 0 0 .26458 257.35 234.464)"/><pattern xlink:href="#g" id="e" patternTransform="matrix(.26458 0 0 .26458 257.35 199.54)"/><pattern id="h" patternTransform="translate(214.909 60.198) scale(.26458)" height="80.714" width="10.068" patternUnits="userSpaceOnUse"><path transform="translate(-812.254 -227.52) scale(3.77953)" d="M215.943 60.198h1.63v21.356h-1.63z" stroke-width="1.022" fill="#fff"/><path transform="translate(-812.254 -227.52) scale(3.77953)" stroke="#000" fill="none" d="M215.409 81.554V60.198"/></pattern><pattern xlink:href="#i" id="j" patternTransform="matrix(.26458 0 0 .26458 257.35 58.252)"/><pattern patternUnits="userSpaceOnUse" width="10.068" height="80.714" patternTransform="matrix(.26458 0 0 .26458 195.877 61.993)" id="i"><path fill="none" d="M195.688 61.899h2.664v21.356h-2.664z" transform="matrix(3.77953 0 0 3.77953 -739.609 -233.948)"/><path fill="#fff" stroke-width="1.022" d="M196.722 61.899h1.63v21.356h-1.63z" transform="matrix(3.77953 0 0 3.77953 -739.609 -233.948)"/><path d="M196.188 83.254V61.9" fill="none" stroke="#ff2a2a" transform="matrix(3.77953 0 0 3.77953 -739.609 -233.948)"/></pattern><pattern xlink:href="#k" id="g" patternTransform="matrix(.26458 0 0 .26458 33.725 148.28)"/><pattern patternUnits="userSpaceOnUse" width="10.068" height="80.714" patternTransform="matrix(.26458 0 0 .26458 195.877 61.993)" id="k"><path fill="none" d="M195.688 61.899h2.664v21.356h-2.664z" transform="matrix(3.77953 0 0 3.77953 -739.609 -233.948)"/><path fill="#fff" stroke-width="1.022" d="M196.722 61.899h1.63v21.356h-1.63z" transform="matrix(3.77953 0 0 3.77953 -739.609 -233.948)"/><path d="M196.188 83.254V61.9" fill="none" stroke="#ff2a2a" transform="matrix(3.77953 0 0 3.77953 -739.609 -233.948)"/></pattern><pattern patternUnits="userSpaceOnUse" width="10.068" height="80.714" patternTransform="translate(214.909 60.198) scale(.26458)" id="l"><path fill="#fff" stroke-width="1.022" d="M215.943 60.198h1.63v21.356h-1.63z" transform="translate(-812.254 -227.52) scale(3.77953)"/><path d="M215.409 81.554V60.198" fill="none" stroke="#000" transform="translate(-812.254 -227.52) scale(3.77953)"/></pattern><pattern patternTransform="matrix(.26458 0 0 .26458 257.35 58.252)" id="n" xlink:href="#m"/><pattern id="m" patternTransform="matrix(.26458 0 0 .26458 195.877 61.993)" height="80.714" width="10.068" patternUnits="userSpaceOnUse"><path fill="none" d="M195.688 61.899h2.664v21.356h-2.664z" transform="matrix(3.77953 0 0 3.77953 -739.609 -233.948)"/><path fill="#fff" stroke-width="1.022" d="M196.722 61.899h1.63v21.356h-1.63z" transform="matrix(3.77953 0 0 3.77953 -739.609 -233.948)"/><path d="M196.188 83.254V61.9" fill="none" stroke="#ff2a2a" transform="matrix(3.77953 0 0 3.77953 -739.609 -233.948)"/></pattern><pattern patternUnits="userSpaceOnUse" width="10.068" height="80.714" patternTransform="translate(214.909 60.198) scale(.26458)" id="o"><path fill="#fff" stroke-width="1.022" d="M215.943 60.198h1.63v21.356h-1.63z" transform="translate(-812.254 -227.52) scale(3.77953)"/><path d="M215.409 81.554V60.198" fill="none" stroke="#000" transform="translate(-812.254 -227.52) scale(3.77953)"/></pattern><pattern patternTransform="matrix(.26458 0 0 .26458 257.35 58.252)" id="q" xlink:href="#p"/><pattern id="p" patternTransform="matrix(.26458 0 0 .26458 195.877 61.993)" height="80.714" width="10.068" patternUnits="userSpaceOnUse"><path fill="none" d="M195.688 61.899h2.664v21.356h-2.664z" transform="matrix(3.77953 0 0 3.77953 -739.609 -233.948)"/><path fill="#fff" stroke-width="1.022" d="M196.722 61.899h1.63v21.356h-1.63z" transform="matrix(3.77953 0 0 3.77953 -739.609 -233.948)"/><path d="M196.188 83.254V61.9" fill="none" stroke="#ff2a2a" transform="matrix(3.77953 0 0 3.77953 -739.609 -233.948)"/></pattern><pattern id="r" patternTransform="translate(214.909 60.198) scale(.26458)" height="80.714" width="10.068" patternUnits="userSpaceOnUse"><path transform="translate(-812.254 -227.52) scale(3.77953)" d="M215.943 60.198h1.63v21.356h-1.63z" stroke-width="1.022" fill="#fff"/><path transform="translate(-812.254 -227.52) scale(3.77953)" stroke="#000" fill="none" d="M215.409 81.554V60.198"/></pattern><pattern xlink:href="#s" id="t" patternTransform="matrix(.26458 0 0 .26458 257.35 58.252)"/><pattern patternUnits="userSpaceOnUse" width="10.068" height="80.714" patternTransform="matrix(.26458 0 0 .26458 195.877 61.993)" id="s"><path fill="none" d="M195.688 61.899h2.664v21.356h-2.664z" transform="matrix(3.77953 0 0 3.77953 -739.609 -233.948)"/><path fill="#fff" stroke-width="1.022" d="M196.722 61.899h1.63v21.356h-1.63z" transform="matrix(3.77953 0 0 3.77953 -739.609 -233.948)"/><path d="M196.188 83.254V61.9" fill="none" stroke="#ff2a2a" transform="matrix(3.77953 0 0 3.77953 -739.609 -233.948)"/></pattern><pattern patternUnits="userSpaceOnUse" width="10.068" height="80.714" patternTransform="translate(214.909 60.198) scale(.26458)" id="u"><path fill="#fff" stroke-width="1.022" d="M215.943 60.198h1.63v21.356h-1.63z" transform="translate(-812.254 -227.52) scale(3.77953)"/><path d="M215.409 81.554V60.198" fill="none" stroke="#000" transform="translate(-812.254 -227.52) scale(3.77953)"/></pattern><pattern patternTransform="matrix(.26458 0 0 .26458 257.35 58.252)" id="w" xlink:href="#v"/><pattern id="v" patternTransform="matrix(.26458 0 0 .26458 195.877 61.993)" height="80.714" width="10.068" patternUnits="userSpaceOnUse"><path fill="none" d="M195.688 61.899h2.664v21.356h-2.664z" transform="matrix(3.77953 0 0 3.77953 -739.609 -233.948)"/><path fill="#fff" stroke-width="1.022" d="M196.722 61.899h1.63v21.356h-1.63z" transform="matrix(3.77953 0 0 3.77953 -739.609 -233.948)"/><path d="M196.188 83.254V61.9" fill="none" stroke="#ff2a2a" transform="matrix(3.77953 0 0 3.77953 -739.609 -233.948)"/></pattern><pattern id="x" patternTransform="translate(214.909 60.198) scale(.26458)" height="80.714" width="10.068" patternUnits="userSpaceOnUse"><path transform="translate(-812.254 -227.52) scale(3.77953)" d="M215.943 60.198h1.63v21.356h-1.63z" stroke-width="1.022" fill="#fff"/><path transform="translate(-812.254 -227.52) scale(3.77953)" stroke="#000" fill="none" d="M215.409 81.554V60.198"/></pattern><pattern xlink:href="#y" id="z" patternTransform="matrix(.26458 0 0 .26458 257.35 58.252)"/><pattern patternUnits="userSpaceOnUse" width="10.068" height="80.714" patternTransform="matrix(.26458 0 0 .26458 195.877 61.993)" id="y"><path fill="none" d="M195.688 61.899h2.664v21.356h-2.664z" transform="matrix(3.77953 0 0 3.77953 -739.609 -233.948)"/><path fill="#fff" stroke-width="1.022" d="M196.722 61.899h1.63v21.356h-1.63z" transform="matrix(3.77953 0 0 3.77953 -739.609 -233.948)"/><path d="M196.188 83.254V61.9" fill="none" stroke="#ff2a2a" transform="matrix(3.77953 0 0 3.77953 -739.609 -233.948)"/></pattern><pattern id="A" patternTransform="translate(214.909 60.198) scale(.26458)" height="80.714" width="10.068" patternUnits="userSpaceOnUse"><path transform="translate(-812.254 -227.52) scale(3.77953)" d="M215.943 60.198h1.63v21.356h-1.63z" stroke-width="1.022" fill="#fff"/><path transform="translate(-812.254 -227.52) scale(3.77953)" stroke="#000" fill="none" d="M215.409 81.554V60.198"/></pattern><pattern xlink:href="#B" id="C" patternTransform="matrix(.26458 0 0 .26458 257.35 58.252)"/><pattern patternUnits="userSpaceOnUse" width="10.068" height="80.714" patternTransform="matrix(.26458 0 0 .26458 195.877 61.993)" id="B"><path fill="none" d="M195.688 61.899h2.664v21.356h-2.664z" transform="matrix(3.77953 0 0 3.77953 -739.609 -233.948)"/><path fill="#fff" stroke-width="1.022" d="M196.722 61.899h1.63v21.356h-1.63z" transform="matrix(3.77953 0 0 3.77953 -739.609 -233.948)"/><path d="M196.188 83.254V61.9" fill="none" stroke="#ff2a2a" transform="matrix(3.77953 0 0 3.77953 -739.609 -233.948)"/></pattern><pattern patternUnits="userSpaceOnUse" width="10.068" height="80.714" patternTransform="translate(214.909 60.198) scale(.26458)" id="D"><path fill="#fff" stroke-width="1.022" d="M215.943 60.198h1.63v21.356h-1.63z" transform="translate(-812.254 -227.52) scale(3.77953)"/><path d="M215.409 81.554V60.198" fill="none" stroke="#000" transform="translate(-812.254 -227.52) scale(3.77953)"/></pattern><pattern patternTransform="matrix(.26458 0 0 .26458 257.35 58.252)" id="F" xlink:href="#E"/><pattern id="E" patternTransform="matrix(.26458 0 0 .26458 195.877 61.993)" height="80.714" width="10.068" patternUnits="userSpaceOnUse"><path fill="none" d="M195.688 61.899h2.664v21.356h-2.664z" transform="matrix(3.77953 0 0 3.77953 -739.609 -233.948)"/><path fill="#fff" stroke-width="1.022" d="M196.722 61.899h1.63v21.356h-1.63z" transform="matrix(3.77953 0 0 3.77953 -739.609 -233.948)"/><path d="M196.188 83.254V61.9" fill="none" stroke="#ff2a2a" transform="matrix(3.77953 0 0 3.77953 -739.609 -233.948)"/></pattern></defs><path d="M44.344 9.927c0-5.914-1.224-7.427-6.937-7.427H9.437C3.724 2.5 2.5 4.013 2.5 9.927v53.456c0 5.915 1.224 7.428 6.937 7.428h27.97c5.713 0 6.937-1.513 6.937-7.428z" fill="#fff" stroke="#000" stroke-linejoin="round"/><path d="M75.049 1.492C72.943 1.332 71.108.022 68.98.01c-2.1-.08-4.008.984-5.68 2.142-.93.561-2.334 1.062-3.204.143-1.094-1.44-1.18-3.367-1.142-5.108.072-1.913.643-3.891 2.097-5.22.864-.982 2.013-1.758 3.35-1.856 2.412-.34 4.86.157 7.113 1.014 1.278.311 2.53.754 3.825.979 1.313-.02 2.578-.49 3.83-.851 1.237-.374 2.295-1.126 3.36-1.826.917-.68 2.124-.07 2.603.834 1.343 2.326.692 5.302-.693 7.456-1.596 2.504-4.575 3.963-7.527 3.816-.621.01-1.245.014-1.864-.042z" fill="url(#G)" stroke="#ff2a2a" transform="translate(-49.41 40.389)"/><path d="M75.049-15.97c-2.106-.16-3.941-1.471-6.068-1.482-2.1-.079-4.008.984-5.68 2.142-.93.561-2.334 1.063-3.204.143-1.094-1.439-1.18-3.366-1.142-5.107.072-1.913.643-3.892 2.097-5.22.864-.983 2.013-1.758 3.35-1.856 2.412-.34 4.86.156 7.113 1.014 1.278.31 2.53.753 3.825.978 1.313-.019 2.578-.49 3.83-.85 1.237-.375 2.295-1.127 3.36-1.826.917-.68 2.124-.07 2.603.834 1.343 2.325.692 5.301-.693 7.456-1.596 2.504-4.575 3.963-7.527 3.816-.621.01-1.245.013-1.864-.043z" fill="url(#H)" stroke="#ff2a2a" transform="translate(-49.41 40.389)"/><path d="M75.049 18.954c-2.106-.16-3.941-1.47-6.068-1.48-2.1-.08-4.008.983-5.68 2.141-.93.561-2.334 1.063-3.204.143-1.094-1.439-1.18-3.366-1.142-5.107.072-1.913.643-3.892 2.097-5.22.864-.983 2.013-1.758 3.35-1.856 2.412-.34 4.86.156 7.113 1.014 1.278.31 2.53.753 3.825.978 1.313-.019 2.578-.49 3.83-.85 1.237-.375 2.295-1.127 3.36-1.826.917-.68 2.124-.07 2.603.834 1.343 2.325.692 5.301-.693 7.456-1.596 2.504-4.575 3.963-7.527 3.816-.621.01-1.245.013-1.864-.043z" fill="url(#I)" stroke="#ff2a2a" transform="translate(-49.41 40.389)"/></svg>