<svg xmlns="http://www.w3.org/2000/svg" xmlns:xlink="http://www.w3.org/1999/xlink" width="177.05" height="277.08" viewBox="0 0 46.844 73.311"><defs><pattern id="a" patternTransform="translate(214.909 60.198) scale(.26458)" height="80.714" width="10.068" patternUnits="userSpaceOnUse"><path transform="translate(-812.254 -227.52) scale(3.77953)" d="M215.943 60.198h1.63v21.356h-1.63z" stroke-width="1.022" fill="#fff"/><path transform="translate(-812.254 -227.52) scale(3.77953)" stroke="#000" fill="none" d="M215.409 81.554V60.198"/></pattern><pattern xlink:href="#b" id="c" patternTransform="matrix(.26458 0 0 .26458 257.35 58.252)"/><pattern patternUnits="userSpaceOnUse" width="10.068" height="80.714" patternTransform="matrix(.26458 0 0 .26458 195.877 61.993)" id="b"><path fill="none" d="M195.688 61.899h2.664v21.356h-2.664z" transform="matrix(3.77953 0 0 3.77953 -739.609 -233.948)"/><path fill="#fff" stroke-width="1.022" d="M196.722 61.899h1.63v21.356h-1.63z" transform="matrix(3.77953 0 0 3.77953 -739.609 -233.948)"/><path d="M196.188 83.254V61.9" fill="none" stroke="#ff2a2a" transform="matrix(3.77953 0 0 3.77953 -739.609 -233.948)"/></pattern><pattern patternUnits="userSpaceOnUse" width="10.068" height="80.714" patternTransform="translate(214.909 60.198) scale(.26458)" id="d"><path fill="#fff" stroke-width="1.022" d="M215.943 60.198h1.63v21.356h-1.63z" transform="translate(-812.254 -227.52) scale(3.77953)"/><path d="M215.409 81.554V60.198" fill="none" stroke="#000" transform="translate(-812.254 -227.52) scale(3.77953)"/></pattern><pattern patternTransform="matrix(.26458 0 0 .26458 257.35 58.252)" id="f" xlink:href="#e"/><pattern id="e" patternTransform="matrix(.26458 0 0 .26458 195.877 61.993)" height="80.714" width="10.068" patternUnits="userSpaceOnUse"><path fill="none" d="M195.688 61.899h2.664v21.356h-2.664z" transform="matrix(3.77953 0 0 3.77953 -739.609 -233.948)"/><path fill="#fff" stroke-width="1.022" d="M196.722 61.899h1.63v21.356h-1.63z" transform="matrix(3.77953 0 0 3.77953 -739.609 -233.948)"/><path d="M196.188 83.254V61.9" fill="none" stroke="#ff2a2a" transform="matrix(3.77953 0 0 3.77953 -739.609 -233.948)"/></pattern><pattern patternUnits="userSpaceOnUse" width="10.068" height="80.714" patternTransform="translate(214.909 60.198) scale(.26458)" id="g"><path fill="#fff" stroke-width="1.022" d="M215.943 60.198h1.63v21.356h-1.63z" transform="translate(-812.254 -227.52) scale(3.77953)"/><path d="M215.409 81.554V60.198" fill="none" stroke="#000" transform="translate(-812.254 -227.52) scale(3.77953)"/></pattern><pattern patternTransform="matrix(.26458 0 0 .26458 257.35 58.252)" id="i" xlink:href="#h"/><pattern id="h" patternTransform="matrix(.26458 0 0 .26458 195.877 61.993)" height="80.714" width="10.068" patternUnits="userSpaceOnUse"><path fill="none" d="M195.688 61.899h2.664v21.356h-2.664z" transform="matrix(3.77953 0 0 3.77953 -739.609 -233.948)"/><path fill="#fff" stroke-width="1.022" d="M196.722 61.899h1.63v21.356h-1.63z" transform="matrix(3.77953 0 0 3.77953 -739.609 -233.948)"/><path d="M196.188 83.254V61.9" fill="none" stroke="#ff2a2a" transform="matrix(3.77953 0 0 3.77953 -739.609 -233.948)"/></pattern><pattern id="j" patternTransform="translate(214.909 60.198) scale(.26458)" height="80.714" width="10.068" patternUnits="userSpaceOnUse"><path transform="translate(-812.254 -227.52) scale(3.77953)" d="M215.943 60.198h1.63v21.356h-1.63z" stroke-width="1.022" fill="#fff"/><path transform="translate(-812.254 -227.52) scale(3.77953)" stroke="#000" fill="none" d="M215.409 81.554V60.198"/></pattern><pattern xlink:href="#k" id="l" patternTransform="matrix(.26458 0 0 .26458 257.35 58.252)"/><pattern patternUnits="userSpaceOnUse" width="10.068" height="80.714" patternTransform="matrix(.26458 0 0 .26458 195.877 61.993)" id="k"><path fill="none" d="M195.688 61.899h2.664v21.356h-2.664z" transform="matrix(3.77953 0 0 3.77953 -739.609 -233.948)"/><path fill="#fff" stroke-width="1.022" d="M196.722 61.899h1.63v21.356h-1.63z" transform="matrix(3.77953 0 0 3.77953 -739.609 -233.948)"/><path d="M196.188 83.254V61.9" fill="none" stroke="#ff2a2a" transform="matrix(3.77953 0 0 3.77953 -739.609 -233.948)"/></pattern><pattern patternUnits="userSpaceOnUse" width="10.068" height="80.714" patternTransform="translate(214.909 60.198) scale(.26458)" id="m"><path fill="#fff" stroke-width="1.022" d="M215.943 60.198h1.63v21.356h-1.63z" transform="translate(-812.254 -227.52) scale(3.77953)"/><path d="M215.409 81.554V60.198" fill="none" stroke="#000" transform="translate(-812.254 -227.52) scale(3.77953)"/></pattern><pattern patternTransform="matrix(.26458 0 0 .26458 257.35 58.252)" id="o" xlink:href="#n"/><pattern id="n" patternTransform="matrix(.26458 0 0 .26458 195.877 61.993)" height="80.714" width="10.068" patternUnits="userSpaceOnUse"><path fill="none" d="M195.688 61.899h2.664v21.356h-2.664z" transform="matrix(3.77953 0 0 3.77953 -739.609 -233.948)"/><path fill="#fff" stroke-width="1.022" d="M196.722 61.899h1.63v21.356h-1.63z" transform="matrix(3.77953 0 0 3.77953 -739.609 -233.948)"/><path d="M196.188 83.254V61.9" fill="none" stroke="#ff2a2a" transform="matrix(3.77953 0 0 3.77953 -739.609 -233.948)"/></pattern><pattern id="p" patternTransform="translate(214.909 60.198) scale(.26458)" height="80.714" width="10.068" patternUnits="userSpaceOnUse"><path transform="translate(-812.254 -227.52) scale(3.77953)" d="M215.943 60.198h1.63v21.356h-1.63z" stroke-width="1.022" fill="#fff"/><path transform="translate(-812.254 -227.52) scale(3.77953)" stroke="#000" fill="none" d="M215.409 81.554V60.198"/></pattern><pattern xlink:href="#q" id="r" patternTransform="matrix(.26458 0 0 .26458 257.35 58.252)"/><pattern patternUnits="userSpaceOnUse" width="10.068" height="80.714" patternTransform="matrix(.26458 0 0 .26458 195.877 61.993)" id="q"><path fill="none" d="M195.688 61.899h2.664v21.356h-2.664z" transform="matrix(3.77953 0 0 3.77953 -739.609 -233.948)"/><path fill="#fff" stroke-width="1.022" d="M196.722 61.899h1.63v21.356h-1.63z" transform="matrix(3.77953 0 0 3.77953 -739.609 -233.948)"/><path d="M196.188 83.254V61.9" fill="none" stroke="#ff2a2a" transform="matrix(3.77953 0 0 3.77953 -739.609 -233.948)"/></pattern><pattern id="s" patternTransform="translate(214.909 60.198) scale(.26458)" height="80.714" width="10.068" patternUnits="userSpaceOnUse"><path transform="translate(-812.254 -227.52) scale(3.77953)" d="M215.943 60.198h1.63v21.356h-1.63z" stroke-width="1.022" fill="#fff"/><path transform="translate(-812.254 -227.52) scale(3.77953)" stroke="#000" fill="none" d="M215.409 81.554V60.198"/></pattern><pattern xlink:href="#t" id="u" patternTransform="matrix(.26458 0 0 .26458 257.35 58.252)"/><pattern patternUnits="userSpaceOnUse" width="10.068" height="80.714" patternTransform="matrix(.26458 0 0 .26458 195.877 61.993)" id="t"><path fill="none" d="M195.688 61.899h2.664v21.356h-2.664z" transform="matrix(3.77953 0 0 3.77953 -739.609 -233.948)"/><path fill="#fff" stroke-width="1.022" d="M196.722 61.899h1.63v21.356h-1.63z" transform="matrix(3.77953 0 0 3.77953 -739.609 -233.948)"/><path d="M196.188 83.254V61.9" fill="none" stroke="#ff2a2a" transform="matrix(3.77953 0 0 3.77953 -739.609 -233.948)"/></pattern><pattern patternUnits="userSpaceOnUse" width="10.068" height="80.714" patternTransform="translate(214.909 60.198) scale(.26458)" id="v"><path fill="#fff" stroke-width="1.022" d="M215.943 60.198h1.63v21.356h-1.63z" transform="translate(-812.254 -227.52) scale(3.77953)"/><path d="M215.409 81.554V60.198" fill="none" stroke="#000" transform="translate(-812.254 -227.52) scale(3.77953)"/></pattern><pattern patternTransform="matrix(.26458 0 0 .26458 257.35 58.252)" id="x" xlink:href="#w"/><pattern id="w" patternTransform="matrix(.26458 0 0 .26458 195.877 61.993)" height="80.714" width="10.068" patternUnits="userSpaceOnUse"><path fill="none" d="M195.688 61.899h2.664v21.356h-2.664z" transform="matrix(3.77953 0 0 3.77953 -739.609 -233.948)"/><path fill="#fff" stroke-width="1.022" d="M196.722 61.899h1.63v21.356h-1.63z" transform="matrix(3.77953 0 0 3.77953 -739.609 -233.948)"/><path d="M196.188 83.254V61.9" fill="none" stroke="#ff2a2a" transform="matrix(3.77953 0 0 3.77953 -739.609 -233.948)"/></pattern></defs><path d="M44.344 9.927c0-5.914-1.224-7.427-6.937-7.427H9.437C3.724 2.5 2.5 4.013 2.5 9.927v53.456c0 5.915 1.224 7.428 6.937 7.428h27.97c5.713 0 6.937-1.513 6.937-7.428z" fill="#fff" stroke="#000" stroke-linejoin="round"/><path d="M25.639 41.88c-2.106-.16-3.94-1.47-6.068-1.48-2.1-.08-4.008.983-5.68 2.141-.93.562-2.334 1.063-3.204.143-1.094-1.439-1.18-3.366-1.142-5.107.072-1.913.643-3.891 2.097-5.22.865-.982 2.014-1.758 3.35-1.856 2.413-.34 4.86.157 7.113 1.014 1.278.31 2.53.753 3.825.978 1.313-.019 2.579-.49 3.83-.85 1.237-.375 2.295-1.127 3.36-1.826.917-.68 2.124-.07 2.603.834 1.343 2.326.693 5.301-.693 7.456-1.596 2.504-4.575 3.963-7.527 3.816-.621.01-1.244.014-1.864-.043zM25.639 24.418c-2.106-.16-3.94-1.47-6.068-1.481-2.1-.08-4.008.984-5.68 2.142-.93.561-2.334 1.062-3.204.143-1.094-1.44-1.18-3.367-1.142-5.108.072-1.912.643-3.891 2.097-5.22.865-.982 2.014-1.758 3.35-1.856 2.413-.34 4.86.157 7.113 1.015 1.278.31 2.53.753 3.825.978 1.313-.02 2.579-.49 3.83-.851 1.237-.374 2.295-1.126 3.36-1.825.917-.681 2.124-.07 2.603.833 1.343 2.326.693 5.302-.693 7.456-1.596 2.504-4.575 3.963-7.527 3.817-.621.01-1.244.013-1.864-.043zM25.639 59.343c-2.106-.16-3.94-1.47-6.068-1.481-2.1-.08-4.008.984-5.68 2.142-.93.561-2.334 1.062-3.204.143-1.094-1.44-1.18-3.367-1.142-5.108.072-1.912.643-3.891 2.097-5.22.865-.982 2.014-1.758 3.35-1.856 2.413-.34 4.86.157 7.113 1.015 1.278.31 2.53.753 3.825.978 1.313-.02 2.579-.49 3.83-.851 1.237-.374 2.295-1.126 3.36-1.825.917-.681 2.124-.07 2.603.833 1.343 2.326.693 5.302-.693 7.456-1.596 2.504-4.575 3.963-7.527 3.817-.621.01-1.244.013-1.864-.043z" fill="green" stroke="green"/></svg>